<?xml version="1.0" standalone="no"?><!DOCTYPE svg PUBLIC "-//W3C//DTD SVG 1.1//EN" "http://www.w3.org/Graphics/SVG/1.1/DTD/svg11.dtd"><svg class="icon" width="48px" height="48.00px" viewBox="0 0 1024 1024" version="1.1" xmlns="http://www.w3.org/2000/svg"><path fill="#ffffff" d="M906.31712733 593.70293739h-32.68117496a31.44893394 31.44893394 0 0 1-30.64529848-30.64529848c0-16.34058748-672.21426584 30.64529848-688.55485331 30.64529848h-40.82468086c-34.77062711 0-63.38004913-20.35876473-77.68476013-51.05763891-12.21525883-32.68117496-6.10762941-67.39822639 18.43003965-91.93589545l396.35300379-396.3530038c32.68117496-32.68117496 85.82826603-32.68117496 118.50944099 0l396.3530038 396.3530038c24.53766908 24.53766908 30.64529848 59.25472049 18.37646394 91.93589545-14.304711 30.64529848-42.86055732 51.05763891-77.63118444 51.05763891zM375.11409506 994.18126982H234.15643718a113.3661741 113.3661741 0 0 1-112.40181157-112.34823586v-306.45298483c0-16.39416318 14.304711-30.69887418 30.6452985-30.69887417 10.9294421 0 85.18535768 129.3853074 222.71417095 388.20949792 16.34058748 0 30.64529848 14.304711 30.64529848 30.64529847a31.44893394 31.44893394 0 0 1-30.64529848 30.64529847z m254.64528617-11.09016919a32.14541798 32.14541798 0 0 1-7.44702185 0.85721113 31.44893394 31.44893394 0 0 1-30.64529847-30.64529846v-296.27360249h-163.40587477v296.27360249a31.44893394 31.44893394 0 0 1-30.69887417 30.64529846 30.10954151 30.10954151 0 0 1-30.64529849-30.64529846l-214.51708937-373.36902995c0-28.77014911 562.97342037-52.66490981 697.76987314-34.28844587a29.89523873 29.89523873 0 0 1 17.35852571-5.67902383c16.34058748 0 30.64529848 14.304711 30.64529849 30.64529848v311.22122183A112.02678169 112.02678169 0 0 1 785.77180986 994.18126982h-132.81415197a30.85960127 30.85960127 0 0 1-23.19827666-11.09016919z"  /></svg>