<?xml version="1.0" standalone="no"?><!DOCTYPE svg PUBLIC "-//W3C//DTD SVG 1.1//EN" "http://www.w3.org/Graphics/SVG/1.1/DTD/svg11.dtd"><svg t="1560920119897" class="icon" style="" viewBox="0 0 1024 1024" version="1.1" xmlns="http://www.w3.org/2000/svg" p-id="1201" xmlns:xlink="http://www.w3.org/1999/xlink" width="25" height="25"><defs><style type="text/css"></style></defs><path d="M502.36843027 117.31069971c110.43882247 0 199.96232519 88.06199414 199.9623252 196.67775234 0 108.63734414-89.52260362 196.70383477-199.96232519 196.70383477-110.4352251 0-199.95692959-88.06559151-199.9569296-196.70383477C302.41060156 205.34751055 391.96288497 117.31069971 502.36843027 117.31069971L502.36843027 117.31069971 502.36843027 117.31069971zM502.36843027 117.31069971c110.43882247 0 199.96232519 88.06199414 199.9623252 196.67775234 0 108.63734414-89.52260362 196.70383477-199.96232519 196.70383477-110.4352251 0-199.95692959-88.06559151-199.9569296-196.70383477C302.41060156 205.34751055 391.96288497 117.31069971 502.36843027 117.31069971L502.36843027 117.31069971 502.36843027 117.31069971zM427.38806709 576.27042471l166.66689991 0c142.65947724 0 258.29317705 113.71979795 258.29317704 254.05435107l0 16.36710293c0 55.30260498-115.65798398 57.4044794-258.29317705 57.40447939L427.38806709 904.09635898c-142.66397373 0-258.29317705-0.0809455-258.29317706-57.40447939l0-16.36710293C169.09668828 689.99022266 284.72499248 576.27042471 427.38806709 576.27042471L427.38806709 576.27042471 427.38806709 576.27042471z" fill="#8a8a8a" p-id="1202"></path></svg>