<?xml version="1.0" standalone="no"?><!DOCTYPE svg PUBLIC "-//W3C//DTD SVG 1.1//EN" "http://www.w3.org/Graphics/SVG/1.1/DTD/svg11.dtd"><svg t="1560920147977" class="icon" style="" viewBox="0 0 1024 1024" version="1.1" xmlns="http://www.w3.org/2000/svg" p-id="1463" xmlns:xlink="http://www.w3.org/1999/xlink" width="25" height="25"><defs><style type="text/css"></style></defs><path d="M752.12974341 427.24832566h-28.25055836v-98.87695311a211.87918505 211.87918505 0 0 0-423.7583701 0v98.87695311h-28.25055836a84.75167434 84.75167434 0 0 0-84.75167437 84.75167434v70.62639474a324.88141773 324.88141773 0 0 0 649.76283551 0v-70.62639474a84.75167434 84.75167434 0 0 0-84.75167432-84.75167434z m-367.2572549-98.87695311a127.12751149 127.12751149 0 0 1 254.25502298 0v98.87695311H384.87248851z m155.37806983 353.13197531a28.25055834 28.25055834 0 0 1-56.50111674 0v-113.00223196a28.25055834 28.25055834 0 0 1 56.50111674 0z" fill="#8a8a8a" p-id="1464"></path></svg>