<?xml version="1.0" standalone="no"?><!DOCTYPE svg PUBLIC "-//W3C//DTD SVG 1.1//EN" "http://www.w3.org/Graphics/SVG/1.1/DTD/svg11.dtd"><svg class="icon" width="200px" height="200.00px" viewBox="0 0 1024 1024" version="1.1" xmlns="http://www.w3.org/2000/svg"><path fill="#1afa29" d="M822.857143 402.285714h-36.571429v-128a274.285714 274.285714 0 0 0-548.571428 0v128h-36.571429a109.714286 109.714286 0 0 0-109.714286 109.714286v91.428571a420.571429 420.571429 0 0 0 841.142858 0v-91.428571a109.714286 109.714286 0 0 0-109.714286-109.714286z m-475.428572-128a164.571429 164.571429 0 0 1 329.142858 0v128H347.428571z m201.142858 457.142857a36.571429 36.571429 0 0 1-73.142858 0v-146.285714a36.571429 36.571429 0 0 1 73.142858 0z" /></svg>